<svg xmlns="http://www.w3.org/2000/svg"  viewBox="0 0 64 64" width="64px" height="64px"><radialGradient id="feW31HRPKP6KnwAf9t0POa" cx="32" cy="31.5" r="31.259" gradientUnits="userSpaceOnUse"><stop offset="0" stop-color="#efdcb1"/><stop offset="0" stop-color="#f2e0bb"/><stop offset=".011" stop-color="#f2e0bc"/><stop offset=".362" stop-color="#f9edd2"/><stop offset=".699" stop-color="#fef4df"/><stop offset="1" stop-color="#fff7e4"/></radialGradient><path fill="url(#feW31HRPKP6KnwAf9t0POa)" d="M60,50l0.385,0c1.67,0,3.195-1.122,3.537-2.757C64.392,44.998,62.668,43,60.5,43l-7.358,0	c-1.308,0-2.499-0.941-2.629-2.243C50.363,39.261,51.534,38,53,38l4.869,0c1.451,0,2.789-0.972,3.071-2.395	C61.319,33.693,59.848,32,58,32h-8v-8h11c1.657,0,3-1.343,3-3v0c0-1.657-1.343-3-3-3l-0.894,0c-0.996,0-1.919-0.681-2.078-1.665	C57.824,15.082,58.785,14,60,14l0.357,0c1.308,0,2.5-0.942,2.63-2.243C63.136,10.26,61.966,9,60.5,9h-16C43.672,9,43,8.328,43,7.5	S43.672,6,44.5,6l3.857,0c1.308,0,2.5-0.942,2.63-2.243C51.136,2.26,49.966,1,48.5,1L15.643,1c-1.308,0-2.5,0.942-2.63,2.243	C12.864,4.74,14.034,6,15.5,6l4.857,0c1.308,0,2.499,0.941,2.63,2.242C23.137,9.739,21.966,11,20.5,11L6.126,11	c-1.457,0-2.803,0.975-3.083,2.405C2.669,15.312,4.14,17,5.984,17l2.844,0c2.089,0,3.955,1.527,4.153,3.607	C13.209,22.993,11.339,25,9,25l-3.81,0c-2.086,0-3.959,1.514-4.169,3.59C0.78,30.972,2.665,33,5,33h9v6l-9.869,0	c-1.451,0-2.789,0.972-3.071,2.395C0.681,43.307,2.152,45,4,45h4.5c2.485,0,4.5,2.015,4.5,4.5v0c0,2.485-2.015,4.5-4.5,4.5l-4.31,0	c-2.086,0-3.959,1.514-4.169,3.59C-0.22,59.972,1.665,62,4,62l55.811,0c1.899,0,3.857-1.507,4.142-3.385	c0.369-2.435-1.498-4.555-3.852-4.614c-0.808-0.02-1.606-0.396-1.921-1.14C57.564,51.401,58.618,50,60,50z"/><linearGradient id="feW31HRPKP6KnwAf9t0POb" x1="34.45" x2="28.912" y1="11.093" y2="58.351" gradientUnits="userSpaceOnUse"><stop offset="0" stop-color="#d9e0e3"/><stop offset=".124" stop-color="#d3dbdf"/><stop offset=".283" stop-color="#c3ced3"/><stop offset=".461" stop-color="#a9b8c0"/><stop offset=".536" stop-color="#9badb6"/><stop offset=".642" stop-color="#90a4ae"/><stop offset="1" stop-color="#9badb6"/></linearGradient><path fill="url(#feW31HRPKP6KnwAf9t0POb)" d="M58.255,15.678L16.886,5.031c-0.53-0.137-1.071,0.183-1.208,0.713L5.032,47.114	c-0.137,0.53,0.183,1.071,0.713,1.208l41.37,10.646c0.53,0.137,1.071-0.183,1.208-0.713l10.646-41.37	C59.105,16.355,58.786,15.814,58.255,15.678z M35.136,37.31l-8.45-2.175l2.175-8.45l8.45,2.175L35.136,37.31z"/></svg>